<svg id="レイヤー_1" data-name="レイヤー 1" xmlns="http://www.w3.org/2000/svg" viewBox="0 0 3079.25 2044.94"><defs><style>.cls-1,.cls-4{fill:none;}.cls-1{stroke:#06040f;}.cls-1,.cls-2,.cls-3,.cls-4{stroke-miterlimit:10;}.cls-1,.cls-3,.cls-4{stroke-width:4px;}.cls-2{font-size:120px;stroke-width:3px;font-family:HiraKakuProN-W3-83pv-RKSJ-H, Hiragino Kaku Gothic ProN;}.cls-2,.cls-3,.cls-4{stroke:#000;}.cls-3{fill:#fff;}</style></defs><title>map-mogi-E</title><g id="階段"><rect class="cls-1" x="450.81" y="157.21" width="275.64" height="482.77" transform="translate(997.98 -188.37) rotate(89.95)"/><line class="cls-1" x1="734.7" y1="262.54" x2="734.93" y2="539.21"/><line class="cls-1" x1="632.76" y1="538.85" x2="632.53" y2="262.62"/><line class="cls-1" x1="533.78" y1="261.82" x2="534.01" y2="538.1"/><line class="cls-1" x1="443.78" y1="538.17" x2="443.55" y2="261.5"/></g><g id="階段-2" data-name="階段"><rect class="cls-1" x="933.93" y="157.72" width="275.64" height="482.77" transform="translate(1481.22 -670.97) rotate(89.95)"/><line class="cls-1" x1="1217.83" y1="263.06" x2="1218.05" y2="539.73"/><line class="cls-1" x1="1115.88" y1="539.37" x2="1115.65" y2="263.14"/><line class="cls-1" x1="1016.91" y1="262.34" x2="1017.13" y2="538.61"/><line class="cls-1" x1="926.9" y1="538.69" x2="926.67" y2="262.02"/></g><polyline class="cls-1" points="1660.27 263.14 1660.27 539.73 2815.03 539.73 3072.66 538.1"/><text class="cls-2" transform="translate(806.67 163.62)">２棟</text><rect class="cls-3" x="11.24" y="1214.1" width="902.63" height="828.84"/><rect class="cls-3" x="1660.27" y="538.17" width="352.56" height="356.83"/><rect class="cls-3" x="2012.83" y="538.17" width="352.56" height="356.83"/><rect class="cls-3" x="2365.38" y="538.17" width="352.56" height="356.83"/><rect class="cls-3" x="2717.94" y="538.17" width="352.56" height="356.83"/><rect class="cls-3" x="617.65" y="538.17" width="352.56" height="356.83"/><rect class="cls-3" x="970.21" y="538.17" width="352.56" height="356.83"/><polyline class="cls-4" points="3072.66 1345.14 2093.51 1345.14 2093.51 2042.94"/><polyline class="cls-4" points="1146.49 2042.94 1146.49 1285.08 1146.49 1168.29 11.24 1168.29"/><text class="cls-2" transform="translate(281.05 1663)">１棟</text><polygon class="cls-4" points="11.26 2042.94 3077.24 2042.94 3070.16 2 2.01 2 11.26 2042.94"/><polyline class="cls-4" points="358.6 538.61 11.24 539.73 11.24 261.5 3070.5 263.14"/></svg>