<svg id="レイヤー_1" data-name="レイヤー 1" xmlns="http://www.w3.org/2000/svg" viewBox="0 0 3074.1 1938.43"><defs><style>.cls-1,.cls-11,.cls-5,.cls-9{fill:none;}.cls-1,.cls-8{stroke:#06040f;}.cls-1,.cls-10,.cls-11,.cls-2,.cls-3,.cls-4,.cls-5,.cls-6,.cls-7,.cls-8,.cls-9{stroke-miterlimit:10;}.cls-1,.cls-11,.cls-4,.cls-8,.cls-9{stroke-width:4px;}.cls-10,.cls-2,.cls-3,.cls-4,.cls-8{fill:#fff;}.cls-2,.cls-4,.cls-5,.cls-9{stroke:#040404;}.cls-2,.cls-5{stroke-width:6px;}.cls-3{stroke:#377a27;}.cls-10,.cls-3{stroke-width:10px;}.cls-6{font-size:123px;}.cls-11,.cls-6,.cls-7{stroke:#000;}.cls-6,.cls-7{stroke-width:3px;font-family:HiraKakuProN-W3-83pv-RKSJ-H, Hiragino Kaku Gothic ProN;}.cls-7{font-size:120px;}.cls-10{stroke:#f14c4d;}</style></defs><title>map-mogi-C</title><polygon id="s" class="cls-1" points="2.17 175.05 1065.03 6.71 1977.31 2.01 1981.28 774.22 1324.02 777.61 1323.41 1113.72 2.17 1113.72 2.17 175.05"/><rect id="部室棟" class="cls-2" x="1383.59" y="735.33" width="539.94" height="145.06" transform="translate(2.29 -95.98) rotate(-0.3)"/><polygon id="プール" class="cls-3" points="579.44 655.14 5.42 658.1 5 234.81 577.26 231.87 579.44 655.14"/><path class="cls-4" d="M1368.41,549.14" transform="translate(6.42 -104.51)"/><rect class="cls-4" x="1316.04" y="526.67" width="52.53" height="108.95" transform="translate(3.45 -97.59) rotate(-0.3)"/><polyline class="cls-5" points="812.3 603.02 812.6 662.64 1323.41 660.01 1324.02 777.61"/><rect id="会館" class="cls-3" x="1367.75" y="143.44" width="553.78" height="553.13" transform="translate(4.28 -96.03) rotate(-0.3)"/><polygon id="食堂" class="cls-3" points="1323.41 660.01 682.17 663.31 679.2 87.13 1320.44 83.83 1322.47 477.95 1323.41 660.01"/><text class="cls-6" transform="translate(1405.07 305.5)">くぬぎだ<tspan x="123" y="120">会館</tspan></text><text class="cls-7" transform="translate(761.31 444.63)">生協食堂</text><rect class="cls-1" x="2644.94" y="17.29" width="418.65" height="759.98"/><rect class="cls-8" x="2667.65" y="46.58" width="404.45" height="702.96"/><rect class="cls-9" x="6.42" y="1452.42" width="1400.19" height="484.01"/><rect class="cls-10" x="1356.26" y="825.78" width="575.88" height="539.94"/><rect class="cls-3" x="679.2" y="717.94" width="599.15" height="341.38"/><text class="cls-7" transform="translate(811.73 936.27)">部室棟</text><text class="cls-7" transform="translate(119.54 482.04)">プール</text><rect class="cls-11" x="2644.94" y="1241.08" width="418.65" height="695.35"/><rect class="cls-11" x="1644.2" y="1402.49" width="312.34" height="236.57"/><rect class="cls-11" x="1644.2" y="1675.83" width="315.42" height="239.91"/><text class="cls-7" transform="translate(1539.98 1126.4)">企画</text></svg>