<svg id="レイヤー_1" data-name="レイヤー 1" xmlns="http://www.w3.org/2000/svg" viewBox="0 0 3080.63 1680.75"><defs><style>.cls-1,.cls-13,.cls-5{fill:none;}.cls-1,.cls-13,.cls-7,.cls-9{stroke:#040404;}.cls-1,.cls-10,.cls-11,.cls-12,.cls-13,.cls-2,.cls-3,.cls-4,.cls-5,.cls-6,.cls-7,.cls-8,.cls-9{stroke-miterlimit:10;}.cls-1,.cls-4,.cls-5,.cls-6,.cls-9{stroke-width:4px;}.cls-10,.cls-2,.cls-4,.cls-6,.cls-7,.cls-8,.cls-9{fill:#fff;}.cls-2{stroke:#f4b814;stroke-width:17px;}.cls-3{font-size:226px;}.cls-11,.cls-12,.cls-3,.cls-4{stroke:#000;}.cls-11,.cls-12,.cls-3{stroke-width:3px;font-family:HiraKakuProN-W3-83pv-RKSJ-H, Hiragino Kaku Gothic ProN;}.cls-5,.cls-6{stroke:#06040f;}.cls-13,.cls-7{stroke-width:6px;}.cls-8{stroke:#377a27;}.cls-10,.cls-8{stroke-width:10px;}.cls-10{stroke:#387921;}.cls-11{font-size:123px;}.cls-12{font-size:120px;}</style></defs><title>map-mogi-B</title><polyline id="s" class="cls-1" points="3078.63 2 978.45 12.81 0.2 111.39"/><rect class="cls-2" x="2092.7" y="20.9" width="558.77" height="295.35"/><text class="cls-3" transform="translate(2138.7 256.55) scale(1.04 1)">本部</text><rect class="cls-4" x="1707.34" y="10.61" width="363.91" height="406.16"/><rect class="cls-4" x="1360.52" y="10.13" width="346.86" height="407.12"/><rect class="cls-4" x="1014.04" y="10.16" width="346.86" height="407.12"/><polygon class="cls-4" points="1013.04 417.25 657.64 417.25 657.64 47.08 1013.04 10.19 1013.04 417.25"/><rect class="cls-5" x="2651.48" y="576.8" width="418.65" height="759.98"/><rect class="cls-6" x="2674.19" y="606.09" width="404.45" height="702.96"/><polygon id="s-2" data-name="s" class="cls-5" points="8.7 740.08 1071.56 571.74 1983.84 567.04 1987.82 1339.25 1330.55 1342.64 1329.94 1678.75 8.7 1678.75 8.7 740.08"/><rect id="部室棟" class="cls-7" x="1387.84" y="1564.3" width="539.94" height="145.06" transform="translate(0.3 -359.89) rotate(-0.3)"/><polygon id="プール" class="cls-8" points="585.97 1220.17 11.96 1223.13 11.54 799.85 583.79 796.9 585.97 1220.17"/><path class="cls-9" d="M1372.67,1378.11" transform="translate(8.7 -368.45)"/><rect class="cls-9" x="1320.3" y="1355.64" width="52.53" height="108.95" transform="translate(1.46 -361.5) rotate(-0.3)"/><rect id="会館" class="cls-8" x="1372" y="972.41" width="553.78" height="553.13" transform="translate(2.29 -359.94) rotate(-0.3)"/><polygon id="食堂" class="cls-10" points="1329.94 1225.04 688.7 1228.34 685.74 652.16 1326.98 648.86 1329.01 1042.98 1329.94 1225.04"/><text class="cls-11" transform="translate(1411.6 870.53)">くぬぎだ<tspan x="123" y="120">会館</tspan></text><text class="cls-12" transform="translate(767.84 1009.66)">生協食堂</text><rect class="cls-8" x="685.73" y="1282.97" width="599.15" height="341.38"/><text class="cls-12" transform="translate(126.08 1047.07)">プール</text><line class="cls-13" x1="1330.55" y1="1342.64" x2="1329.94" y2="1225.04"/><text class="cls-12" transform="translate(818.26 1501.66)">部室棟</text></svg>