<svg id="レイヤー_1" data-name="レイヤー 1" xmlns="http://www.w3.org/2000/svg" viewBox="0 0 3071.53 2044.95"><defs><style>.cls-1,.cls-3,.cls-4{fill:#fff;}.cls-1{stroke:#ef4b4d;stroke-width:10px;}.cls-1,.cls-2,.cls-3,.cls-4,.cls-5,.cls-6{stroke-miterlimit:10;}.cls-2,.cls-6{fill:none;}.cls-2,.cls-3{stroke:#06040f;}.cls-2,.cls-3,.cls-4,.cls-6{stroke-width:4px;}.cls-4,.cls-5,.cls-6{stroke:#000;}.cls-5{font-size:209px;stroke-width:3px;font-family:HiraKakuProN-W3-83pv-RKSJ-H, Hiragino Kaku Gothic ProN;}</style></defs><title>map-mogi-D</title><rect class="cls-1" x="5" y="424.46" width="1500" height="1452.24"/><g id="階段"><rect class="cls-2" x="2400.91" y="0.71" width="275.64" height="482.77" transform="translate(3.79 15.09) rotate(-0.3)"/><line class="cls-2" x1="2405.1" y1="109.87" x2="2681.76" y2="108.45"/><line class="cls-2" x1="2681.84" y1="210.62" x2="2405.62" y2="212.04"/><line class="cls-2" x1="2405.25" y1="310.79" x2="2681.52" y2="309.37"/><line class="cls-2" x1="2681.98" y1="399.6" x2="2405.32" y2="401.03"/></g><g id="階段-2" data-name="階段"><rect class="cls-2" x="2729.78" y="48.58" width="275.64" height="383.28" transform="translate(3104.79 -2626.03) rotate(89.84)"/><line class="cls-2" x1="2869.56" y1="380.78" x2="2868.78" y2="104.56"/><line class="cls-2" x1="2770.04" y1="103.95" x2="2770.81" y2="380.23"/><line class="cls-2" x1="2679.8" y1="103.81" x2="2680.58" y2="380.48"/><line class="cls-2" x1="2964.48" y1="104.34" x2="2965.25" y2="381.01"/></g><rect class="cls-3" x="1835.52" y="2.01" width="569.58" height="308.07"/><rect class="cls-3" x="5" y="2.01" width="1760.48" height="307.36"/><rect class="cls-4" x="1597" y="438.69" width="439.22" height="289.86"/><rect class="cls-4" x="1597" y="732.62" width="439.22" height="289.86"/><rect class="cls-4" x="1597" y="1317.01" width="439.22" height="289.86"/><rect class="cls-4" x="1597" y="1610.94" width="439.22" height="289.86"/><rect class="cls-4" x="2517" y="552.45" width="456" height="277.9"/><rect class="cls-4" x="2517" y="834.25" width="456" height="277.9"/><rect class="cls-4" x="2517" y="1112.15" width="456" height="277.9"/><rect class="cls-4" x="2517" y="1393.95" width="456" height="277.9"/><g id="階段-3" data-name="階段"><rect class="cls-3" x="2734.68" y="1662.58" width="275.64" height="383.28" transform="translate(4723.68 -1021.45) rotate(89.84)"/><line class="cls-3" x1="2874.46" y1="1994.79" x2="2873.69" y2="1718.56"/><line class="cls-3" x1="2774.94" y1="1717.96" x2="2775.72" y2="1994.23"/><line class="cls-3" x1="2684.71" y1="1717.82" x2="2685.48" y2="1994.48"/><line class="cls-3" x1="2969.39" y1="1718.34" x2="2970.16" y2="1995.01"/></g><text class="cls-5" transform="translate(214.5 1175.78)">第一体育館</text><polygon class="cls-6" points="5 2.01 5 2042.95 3066.42 2042.95 3066.42 2.01 2404.67 2.01 5 2.01"/><path class="cls-6" d="M2402.15,484.18" transform="translate(5 2.01)"/></svg>