<svg id="レイヤー_1" data-name="レイヤー 1" xmlns="http://www.w3.org/2000/svg" viewBox="0 0 3057.04 1758.08"><defs><style>.cls-1,.cls-3{fill:none;}.cls-1,.cls-2{stroke:#06040f;}.cls-1,.cls-2,.cls-3,.cls-4,.cls-5,.cls-6,.cls-7{stroke-miterlimit:10;}.cls-1,.cls-2,.cls-3,.cls-5,.cls-6{stroke-width:7px;}.cls-2,.cls-4,.cls-5,.cls-6{fill:#fff;}.cls-3,.cls-6{stroke:#040404;}.cls-4,.cls-5{stroke:#367b2a;}.cls-4{stroke-width:10px;}.cls-7{font-size:120px;stroke:#000;stroke-width:3px;font-family:HiraKakuProN-W3-83pv-RKSJ-H, Hiragino Kaku Gothic ProN;}</style></defs><title>map-mogi-A</title><polyline id="s" class="cls-1" points="3056.14 1488.29 2024.83 1503.12 2022.29 979.5 3056.14 701.55"/><path id="_4_5" data-name="4,5" class="cls-2" d="M3042.4,919.3" transform="translate(12.14 -133.18)"/><path id="_4_5-2" data-name="4,5" class="cls-2" d="M3044,1414.94" transform="translate(12.14 -133.18)"/><path id="s-2" data-name="s" class="cls-2" d="M3030.52,1570.57" transform="translate(12.14 -133.18)"/><polyline id="s-3" data-name="s" class="cls-3" points="3030.53 507.6 2002.93 767.64 422.24 776.82"/><path id="s-4" data-name="s" class="cls-1" d="M410.1,910S167.35,70.84-8.63,140.82l.13,169.5s203,164.88,277.61,587.75L0,904.6" transform="translate(12.14 -133.18)"/><path id="s-5" data-name="s" class="cls-3" d="M1777.79,1153" transform="translate(12.14 -133.18)"/><path class="cls-1" d="M2616.1,1722.74" transform="translate(12.14 -133.18)"/><path class="cls-1" d="M2817,1859.92" transform="translate(12.14 -133.18)"/><path class="cls-1" d="M2817,1859.92" transform="translate(12.14 -133.18)"/><polygon id="プール" class="cls-4" points="3036.76 1455.15 2026.82 1465.3 2024.14 1075.34 3034.08 1065.19 3036.76 1455.15"/><polygon id="自転車置き場" class="cls-5" points="1436.89 768.61 1004.88 771.43 1003.39 431.37 1435.39 428.56 1436.89 768.61"/><g id="寮"><polygon class="cls-5" points="1667.57 1461.03 984.77 1465.3 983.3 1119.52 1666.11 1115.25 1667.57 1461.03"/><polygon id="寮-2" data-name="寮" class="cls-5" points="130.41 1124.87 841.8 1120.41 843.27 1466.19 532.74 1468.14 533.34 1610.48 132.48 1612.99 130.41 1124.87"/></g><path id="s-6" data-name="s" class="cls-2" d="M3030.49,1559.64" transform="translate(12.14 -133.18)"/><rect class="cls-6" x="433.21" y="430" width="275.05" height="340.12"/><polygon class="cls-6" points="2540.37 1053.93 2492.74 862.12 2853 752.53 2900.63 944.34 2540.37 1053.93"/><polyline class="cls-3" points="1742.54 1758.08 1742.54 1689.27 1742.54 1065.19 341.97 1065.19 3.63 1065.19"/><polyline class="cls-3" points="1946.02 1758.08 1946.02 1685.22 3036.76 1685.22"/><rect class="cls-6" x="708.26" y="430" width="275.05" height="340.12"/><rect class="cls-6" x="1456.86" y="430" width="269.53" height="340.12"/><rect class="cls-6" x="1726.39" y="430" width="269.46" height="340.12"/><text class="cls-7" transform="translate(1205.44 1332.93)">１寮</text><text class="cls-7" transform="translate(1100.08 642.21)">倉庫</text><text class="cls-7" transform="translate(2359.21 1332.93)">プール</text></svg>