<svg xmlns="http://www.w3.org/2000/svg" viewBox="0 0 818.67 331.14"><defs><style>.cls-1,.cls-3,.cls-5{fill:none;}.cls-1,.cls-2{stroke:#06040f;}.cls-1,.cls-2,.cls-3,.cls-4,.cls-5{stroke-miterlimit:10;}.cls-2,.cls-4{fill:#fff;}.cls-3,.cls-4{stroke:#040404;}.cls-5{stroke:#000;}</style></defs><title>map</title><g id="レイヤー_2" data-name="レイヤー 2"><line id="s" class="cls-1" x1="438.19" y1="257.96" x2="468.68" y2="257.8"/><polyline class="cls-2" points="634.54 286.38 625.82 286.4 625.95 310.2 634.66 310.16"/><polyline id="s-2" data-name="s" class="cls-1" points="349.47 196.77 349.79 257.69 413.06 257.36"/><path id="s-3" data-name="s" class="cls-1" d="M450.07,391.87" transform="translate(-13.22 -206.16)"/><polygon id="s-4" data-name="s" class="cls-1" points="281.45 71.28 373.25 57.37 436.19 57.04 436.46 107.97 281.65 108.77 281.45 71.28"/><line class="cls-1" x1="436.95" y1="202.99" x2="436.6" y2="245.69"/><polyline id="s-5" data-name="s" class="cls-1" points="747.7 41.6 748.02 103.45 668.77 103.86 668.52 55.84"/><path id="s-6" data-name="s" class="cls-1" d="M450.18,413.57" transform="translate(-13.22 -206.16)"/><path id="s-7" data-name="s" class="cls-1" d="M450.18,413.57" transform="translate(-13.22 -206.16)"/><polyline id="s-8" data-name="s" class="cls-1" points="762.47 41.27 810.66 41.27 816.59 41.27"/><polyline id="s-9" data-name="s" class="cls-1" points="653.52 161.52 653.29 116.07 810.65 115.26 810.76 41.27"/><polyline class="cls-1" points="817.92 280.16 706.17 280.73 706.22 291.25 663.04 291.47 663.1 302.78 663.23 326.83"/><g id="teniss"><rect class="cls-1" x="676.11" y="444.33" width="35.35" height="47.96" transform="translate(-15.62 -202.58) rotate(-0.3)"/><line class="cls-1" x1="692.52" y1="286.06" x2="692.27" y2="238.12"/><line class="cls-1" x1="669.71" y1="286.18" x2="669.46" y2="238.23"/><line class="cls-1" x1="669.54" y1="252.79" x2="692.35" y2="252.67"/><line class="cls-1" x1="669.64" y1="272.77" x2="692.45" y2="272.65"/><line class="cls-1" x1="663.16" y1="262.81" x2="698.25" y2="262.63"/><line class="cls-1" x1="680.52" y1="252.73" x2="681.04" y2="272.01"/></g><g id="teniss-2" data-name="teniss"><rect class="cls-1" x="713.4" y="428.89" width="35.35" height="47.96" transform="translate(-15.54 -202.39) rotate(-0.3)"/><line class="cls-1" x1="729.82" y1="270.62" x2="729.57" y2="222.67"/><line class="cls-1" x1="706.83" y1="237.34" x2="729.65" y2="237.23"/><line class="cls-1" x1="706.94" y1="257.33" x2="729.75" y2="257.21"/><line class="cls-1" x1="707.01" y1="270.74" x2="706.76" y2="222.79"/><line class="cls-1" x1="700.45" y1="247.37" x2="735.54" y2="247.19"/><line class="cls-1" x1="717.81" y1="237.29" x2="718.34" y2="256.57"/></g><g id="teniss-3" data-name="teniss"><rect class="cls-1" x="754.92" y="428" width="35.35" height="47.96" transform="translate(-15.53 -202.17) rotate(-0.3)"/><line class="cls-1" x1="771.33" y1="269.73" x2="771.09" y2="221.79"/><line class="cls-1" x1="748.52" y1="269.86" x2="748.27" y2="221.91"/><line class="cls-1" x1="748.35" y1="236.46" x2="771.16" y2="236.34"/><line class="cls-1" x1="748.45" y1="256.44" x2="771.26" y2="256.32"/><line class="cls-1" x1="741.97" y1="246.48" x2="777.06" y2="246.3"/><line class="cls-1" x1="759.33" y1="236.4" x2="759.85" y2="255.68"/></g><g id="teniss-4" data-name="teniss"><rect class="cls-1" x="793.77" y="428.02" width="35.35" height="47.96" transform="translate(-15.53 -201.97) rotate(-0.3)"/><line class="cls-1" x1="810.19" y1="269.75" x2="809.94" y2="221.8"/><line class="cls-1" x1="787.37" y1="269.87" x2="787.13" y2="221.93"/><line class="cls-1" x1="787.2" y1="236.47" x2="810.01" y2="236.35"/><line class="cls-1" x1="787.31" y1="256.45" x2="810.12" y2="256.33"/><line class="cls-1" x1="780.82" y1="246.49" x2="815.91" y2="246.31"/><line class="cls-1" x1="798.18" y1="236.41" x2="798.71" y2="255.7"/></g><g id="階段"><rect class="cls-2" x="648.56" y="263.67" width="14.31" height="36.41" transform="translate(-14.66 -202.78) rotate(-0.3)"/><line class="cls-2" x1="648.74" y1="62.1" x2="635.27" y2="62.17"/><line class="cls-2" x1="648.76" y1="65.98" x2="635.29" y2="66.05"/><line class="cls-2" x1="648.78" y1="69.86" x2="635.31" y2="69.93"/><line class="cls-2" x1="648.8" y1="73.74" x2="635.33" y2="73.81"/><line class="cls-2" x1="635.35" y1="76.74" x2="648.81" y2="76.67"/><line class="cls-2" x1="648.83" y1="80.55" x2="635.37" y2="80.62"/><line class="cls-2" x1="635.39" y1="84.5" x2="648.85" y2="84.43"/><line class="cls-2" x1="648.87" y1="88.31" x2="635.41" y2="88.38"/></g><g id="階段-2" data-name="階段"><rect class="cls-2" x="653.62" y="324.07" width="12.78" height="36.41" transform="translate(-14.97 -202.75) rotate(-0.3)"/><line class="cls-2" x1="640.34" y1="122.58" x2="652.36" y2="122.51"/><line class="cls-2" x1="652.38" y1="126.39" x2="640.36" y2="126.46"/><line class="cls-2" x1="640.38" y1="130.34" x2="652.4" y2="130.27"/><line class="cls-2" x1="652.42" y1="134.16" x2="640.4" y2="134.22"/><line class="cls-2" x1="640.41" y1="137.14" x2="652.44" y2="137.08"/><line class="cls-2" x1="652.46" y1="140.96" x2="640.43" y2="141.02"/><line class="cls-2" x1="640.45" y1="144.9" x2="652.48" y2="144.84"/><line class="cls-2" x1="652.5" y1="148.72" x2="640.47" y2="148.78"/></g><g id="階段-3" data-name="階段"><rect class="cls-2" x="652.07" y="391.75" width="10.97" height="36.41" transform="translate(-15.32 -202.77) rotate(-0.3)"/><line class="cls-2" x1="638.78" y1="190.25" x2="649.11" y2="190.19"/><line class="cls-2" x1="649.13" y1="194.08" x2="638.8" y2="194.13"/><line class="cls-2" x1="638.82" y1="198.01" x2="649.15" y2="197.96"/><line class="cls-2" x1="649.17" y1="201.84" x2="638.84" y2="201.89"/><line class="cls-2" x1="638.86" y1="204.81" x2="649.18" y2="204.76"/><line class="cls-2" x1="649.2" y1="208.64" x2="638.88" y2="208.69"/><line class="cls-2" x1="638.9" y1="212.57" x2="649.22" y2="212.52"/><line class="cls-2" x1="649.24" y1="216.4" x2="638.92" y2="216.45"/></g><g id="階段-4" data-name="階段"><rect class="cls-2" x="592.38" y="428.31" width="7.54" height="32.46" transform="translate(1023.18 -360.95) rotate(89.59)"/><line class="cls-2" x1="595.02" y1="234.53" x2="595.07" y2="241.62"/><line class="cls-2" x1="591.61" y1="241.65" x2="591.56" y2="234.55"/><line class="cls-2" x1="588.1" y1="234.58" x2="588.15" y2="241.67"/><line class="cls-2" x1="584.69" y1="241.69" x2="584.64" y2="234.6"/><line class="cls-2" x1="582.03" y1="234.62" x2="582.09" y2="241.71"/><line class="cls-2" x1="578.63" y1="241.74" x2="578.58" y2="234.64"/><line class="cls-2" x1="575.12" y1="234.67" x2="575.17" y2="241.76"/><line class="cls-2" x1="571.71" y1="241.79" x2="571.66" y2="234.69"/></g><g id="階段-5" data-name="階段"><rect class="cls-2" x="438.82" y="375.02" width="10.97" height="15.98" transform="translate(-15.18 -203.86) rotate(-0.3)"/><line class="cls-2" x1="425.58" y1="171.94" x2="435.9" y2="171.89"/><line class="cls-2" x1="435.92" y1="175.27" x2="425.59" y2="175.33"/><line class="cls-2" x1="425.93" y1="178.59" x2="436.26" y2="178.54"/><line class="cls-2" x1="425.95" y1="181.58" x2="436.27" y2="181.53"/></g><g id="階段-6" data-name="階段"><rect class="cls-2" x="438.95" y="401.18" width="10.97" height="15.98" transform="translate(-15.32 -203.86) rotate(-0.3)"/><line class="cls-2" x1="425.71" y1="198.1" x2="436.03" y2="198.05"/><line class="cls-2" x1="436.05" y1="201.43" x2="425.73" y2="201.48"/><line class="cls-2" x1="426.07" y1="204.75" x2="436.39" y2="204.7"/><line class="cls-2" x1="426.09" y1="207.74" x2="436.41" y2="207.69"/></g><g id="階段-7" data-name="階段"><rect class="cls-2" x="440.76" y="450.77" width="12.28" height="14.46" transform="translate(889.37 -197.41) rotate(89.7)"/><line class="cls-2" x1="438.12" y1="245.68" x2="438.18" y2="257.23"/><line class="cls-2" x1="435.12" y1="257.25" x2="435.06" y2="245.69"/><line class="cls-2" x1="432.11" y1="246.07" x2="432.17" y2="257.63"/><line class="cls-2" x1="429.4" y1="246.09" x2="429.46" y2="257.64"/></g><g id="階段-8" data-name="階段"><rect class="cls-2" x="603.73" y="262.93" width="7.39" height="36.41" transform="translate(-14.66 -203.03) rotate(-0.3)"/><line class="cls-2" x1="590.44" y1="61.42" x2="597.4" y2="61.38"/><line class="cls-2" x1="597.42" y1="65.26" x2="590.46" y2="65.3"/><line class="cls-2" x1="590.48" y1="69.18" x2="597.44" y2="69.14"/><line class="cls-2" x1="597.46" y1="73.03" x2="590.5" y2="73.06"/><line class="cls-2" x1="590.52" y1="75.98" x2="597.47" y2="75.95"/><line class="cls-2" x1="597.49" y1="79.83" x2="590.54" y2="79.86"/><line class="cls-2" x1="590.56" y1="83.74" x2="597.51" y2="83.71"/><line class="cls-2" x1="597.53" y1="87.59" x2="590.58" y2="87.62"/></g><polygon id="_4_5" data-name="4,5" class="cls-2" points="590.42 56.79 590.65 102.4 447.74 102.86 447.5 57.53 550.04 57 550.51 85.56 552.99 85.54 552.84 56.99 590.42 56.79"/><g id="階段-9" data-name="階段"><rect class="cls-2" x="278.05" y="324.91" width="14.75" height="12.69" transform="translate(-14.92 -204.68) rotate(-0.3)"/><line class="cls-2" x1="264.81" y1="121.22" x2="278.69" y2="121.14"/><line class="cls-2" x1="278.7" y1="123.83" x2="264.82" y2="123.9"/><line class="cls-2" x1="279.15" y1="126.42" x2="265.27" y2="126.49"/><line class="cls-2" x1="265.29" y1="128.87" x2="279.17" y2="128.79"/></g><g id="階段-10" data-name="階段"><rect class="cls-1" x="32.38" y="255.71" width="17.9" height="34.38" transform="translate(-244.78 108.07) rotate(-90)"/><line class="cls-1" x1="40.84" y1="75.12" x2="40.84" y2="58.28"/><line class="cls-1" x1="37.33" y1="58.28" x2="37.33" y2="75.12"/><line class="cls-1" x1="34.43" y1="75.14" x2="34.43" y2="58.31"/><line class="cls-1" x1="30.3" y1="58.28" x2="30.3" y2="75.12"/><line class="cls-1" x1="27.06" y1="75.12" x2="27.06" y2="58.28"/><line class="cls-1" x1="22.97" y1="58.31" x2="22.97" y2="75.14"/><line class="cls-1" x1="19.31" y1="75.12" x2="19.31" y2="58.28"/><line class="cls-1" x1="15.39" y1="58.31" x2="15.39" y2="75.14"/></g><rect id="s-10" data-name="s" class="cls-2" x="459.12" y="322.76" width="194.74" height="54.22" transform="translate(-15.01 -203.29) rotate(-0.3)"/><path id="s-11" data-name="s" class="cls-1" d="M51.32,262.86l-.22-42.22,74.57-.27s21.62-4.48,43,41.89" transform="translate(-13.22 -206.16)"/><polyline id="s-12" data-name="s" class="cls-3" points="816.59 21.61 648.89 22.47 648.99 42.11 368.18 43.55 266.94 56.45 155.8 57.03 7.29 57.79"/><path id="s-13" data-name="s" class="cls-1" d="M182.78,263.11S151,205,130.37,207.78" transform="translate(-13.22 -206.16)"/><polyline id="s-14" data-name="s" class="cls-3" points="604.7 326.83 604.41 269.61 332.95 269.58 333.19 317.08 22.4 318.68 21.45 133.88 264.87 132.63 264.57 74.42 7.38 75.74"/><path class="cls-2" d="M580,448.43l-105.52.49s-8.44,2-8.9-11-.22-42.28-.22-42.28l-.18-1.41h2.28" transform="translate(-13.22 -206.16)"/><path class="cls-1" d="M652,391.78" transform="translate(-13.22 -206.16)"/><polyline id="s-15" data-name="s" class="cls-1" points="649.92 222.62 649.73 185.62 745.96 185.13 680.19 191.05"/><polyline id="s-16" data-name="s" class="cls-1" points="704.85 207.68 679.57 207.81 747.43 199.08 817.5 198.72"/><polygon id="枠" class="cls-3" points="28.93 1.76 29.18 49.23 7.24 49.34 8.68 327.82 818.16 327.82 816.48 0.5 28.93 1.76"/><polyline id="s-17" data-name="s" class="cls-1" points="634.9 327.82 634.6 270.16 660.07 270.02 659.8 217.68 704.38 217.45"/><polyline class="cls-1" points="638.95 222.03 639.05 241.95 609.02 242.1 608.98 234.5"/><path class="cls-2" d="M674.94,572.28" transform="translate(-13.22 -206.16)"/><line class="cls-1" x1="609.44" y1="323.37" x2="609.48" y2="330.81"/><line class="cls-1" x1="626.16" y1="323.7" x2="626.2" y2="331.14"/><line class="cls-1" x1="7.38" y1="62.09" y2="62.09"/><line class="cls-1" x1="7.38" y1="72.52" y2="72.52"/><line class="cls-2" x1="436.62" y1="195.03" x2="436.56" y2="182.47"/><line class="cls-2" x1="425.69" y1="195.09" x2="425.63" y2="181.58"/><line class="cls-2" x1="434.8" y1="194.55" x2="434.75" y2="185.28"/><path class="cls-1" d="M368.33,337.18" transform="translate(-13.22 -206.16)"/><path class="cls-1" d="M368.3,331.18" transform="translate(-13.22 -206.16)"/><line class="cls-1" x1="355.09" y1="125.02" x2="279.15" y2="125.41"/><path class="cls-2" d="M662.21,248.27" transform="translate(-13.22 -206.16)"/><path class="cls-3" d="M662.21,248.27" transform="translate(-13.22 -206.16)"/><path class="cls-3" d="M662.78,263.63" transform="translate(-13.22 -206.16)"/><path class="cls-3" d="M662.21,248.27" transform="translate(-13.22 -206.16)"/><path class="cls-3" d="M662.78,263.63" transform="translate(-13.22 -206.16)"/><line class="cls-3" x1="649.66" y1="58.07" x2="649.34" y2="42.71"/><rect class="cls-2" x="635.13" y="299.82" width="7.26" height="28"/></g><g id="レイヤー_1" data-name="レイヤー 1"><rect id="連結" class="cls-4" x="555.81" y="308.77" width="10.92" height="170.78" transform="translate(-15.24 -203.26) rotate(-0.3)"/><rect id="工場" class="cls-4" x="692.47" y="329.18" width="127.37" height="46.76" transform="translate(-15.02 -202.26) rotate(-0.3)"/><polygon id="_7" data-name="7" class="cls-4" points="747.66 103.25 662.08 103.82 661.84 57.3 747.42 56.73 747.66 103.25"/><rect id="_6" data-name="6" class="cls-4" x="617.33" y="263.75" width="32.58" height="46.52" transform="translate(-14.69 -202.89) rotate(-0.3)"/><rect id="_1" data-name="1" class="cls-4" x="512.49" y="478.85" width="98.35" height="33.5" transform="translate(-15.76 -203.26) rotate(-0.3)"/><rect id="_9" data-name="9" class="cls-4" x="456.18" y="479.27" width="48.75" height="43.27" transform="translate(-15.79 -203.68) rotate(-0.3)"/><rect id="武道場" class="cls-4" x="346.26" y="479.76" width="76.89" height="28.25" transform="translate(-15.75 -204.17) rotate(-0.3)"/><rect id="体育館" class="cls-4" x="345.94" y="402.82" width="75.33" height="60.92" transform="matrix(1, -0.01, 0.01, 1, -15.44, -204.18)"/><rect id="_9-2" data-name="9" class="cls-4" x="426.46" y="479.48" width="25.12" height="38.74" transform="translate(-15.78 -203.89) rotate(-0.3)"/><rect id="第二体育館" class="cls-4" x="344.02" y="331.06" width="93.7" height="44.63" transform="matrix(1, -0.01, 0.01, 1, -15.03, -204.14)"/><rect id="部室棟" class="cls-4" x="368.58" y="379.41" width="55.44" height="11.13" transform="translate(-15.19 -204.11) rotate(-0.3)"/><rect id="トレセン" class="cls-4" x="425.72" y="379.23" width="11.13" height="11.13" transform="translate(-15.19 -203.93) rotate(-0.3)"/><rect id="会館" class="cls-4" x="407.81" y="265.64" width="38.19" height="36.48" transform="matrix(1, -0.01, 0.01, 1, -14.67, -203.95)"/><polygon id="食堂" class="cls-4" points="391.09 100.45 355.86 100.63 355.67 62.63 390.89 62.45 391.03 88.44 391.09 100.45"/><rect id="部室棟-2" data-name="部室棟" class="cls-4" x="408.9" y="304.68" width="37.24" height="9.57" transform="translate(-14.8 -203.95) rotate(-0.3)"/><rect id="プール" class="cls-4" x="294.74" y="277.27" width="67.37" height="27.92" transform="translate(-14.71 -204.46) rotate(-0.3)"/><rect id="自転車置き場" class="cls-4" x="225.03" y="238.63" width="41.62" height="24.75" transform="translate(-14.5 -204.89) rotate(-0.3)"/><g id="寮"><rect class="cls-4" x="209.71" y="287.55" width="57.36" height="24.75" transform="translate(-14.76 -204.93) rotate(-0.3)"/><rect id="寮-2" data-name="寮" class="cls-4" x="102.01" y="294.56" width="42.11" height="11.68" transform="translate(-14.76 -205.52) rotate(-0.3)"/><rect id="寮-3" data-name="寮" class="cls-4" x="48.41" y="288.37" width="61.78" height="24.75" transform="translate(-14.76 -205.74) rotate(-0.3)"/><rect id="寮-4" data-name="寮" class="cls-4" x="54.5" y="229.09" width="86.37" height="24.75" transform="translate(-14.46 -205.65) rotate(-0.3)"/><polygon id="寮-5" data-name="寮" class="cls-4" points="120.03 81.93 181.99 81.61 182.12 106.37 155.07 106.51 155.12 116.7 120.2 116.88 120.03 81.93"/></g><g id="ground"><path class="cls-4" d="M92,389.71" transform="translate(-13.22 -206.16)"/><path class="cls-3" d="M99.18,467c-21,.11-38.13-16.61-38.24-37.33S77.78,392,98.79,391.92" transform="translate(-13.22 -206.16)"/><path class="cls-3" d="M169.34,391.55c21-.11,38.13,16.61,38.24,37.33s-16.84,37.61-37.85,37.72l-74.9.39" transform="translate(-13.22 -206.16)"/><polyline id="s-18" data-name="s" class="cls-4" points="83.14 185.86 154 185.49 158.56 185.47"/></g><path class="cls-4" d="M407.86,292.4" transform="translate(-13.22 -206.16)"/><rect class="cls-4" x="404.24" y="290.92" width="3.62" height="7.19" transform="translate(-14.73 -204.06) rotate(-0.3)"/><rect id="部室棟-3" data-name="部室棟" class="cls-4" x="344.26" y="310.8" width="35.95" height="7.56" transform="translate(-14.83 -204.29) rotate(-0.3)"/><line class="cls-4" x1="355.32" y1="169.65" x2="355.39" y2="184.52"/><rect id="_" data-name="２" class="cls-4" x="465.25" y="393.7" width="186.68" height="47.11" transform="translate(-15.36 -203.28) rotate(-0.3)"/><path class="cls-4" d="M362.69,402.92" transform="translate(-13.22 -206.16)"/><polygon id="s-19" data-name="s" class="cls-2" points="445.76 116.1 446.59 171.31 641.33 170.31 640.5 115.1 445.76 116.1"/><polyline class="cls-3" points="355.84 96.7 355.86 100.63 391.09 100.45 391.13 108.21"/><polyline class="cls-5" points="233.19 153.77 311.52 153.37 311.91 230.5"/><rect class="cls-5" x="246.42" y="359.91" width="7.27" height="7.27" transform="translate(-15.08 -204.86) rotate(-0.3)"/><rect class="cls-5" x="317.85" y="430.14" width="7.27" height="7.27" transform="translate(-15.45 -204.5) rotate(-0.3)"/><rect class="cls-5" x="246.79" y="430.51" width="7.27" height="7.27" transform="translate(-15.45 -204.86) rotate(-0.3)"/><polygon class="cls-5" points="307.27 153.59 304.37 156.6 308.5 160.59 311.41 157.58 311.42 153.43 307.27 153.59"/></g></svg>